<svg width="159" height="159" viewBox="0 0 159 159" fill="none" xmlns="http://www.w3.org/2000/svg">
<path d="M10.4136 40.026L40.0438 10.3958C34.7834 13.4017 29.8987 16.9981 25.4792 21.0777L21.0955 25.4614C17.016 29.8988 13.4195 34.7656 10.4136 40.026Z" fill="#1F2E35"/>
<path d="M1.57446 63.5726L63.5904 1.55664C61.8727 1.8966 60.1908 2.3081 58.5089 2.75542L2.77327 58.491C2.30806 60.173 1.91442 61.8727 1.57446 63.5726Z" fill="#1F2E35"/>
<path d="M0 79.3361C0 79.4971 0 79.676 0 79.837L79.837 0C79.676 0 79.4971 0 79.336 0C78.1909 0 77.0279 0.0358006 75.9006 0.0715859L0.0715586 75.9007C0.0357733 77.0458 0 78.191 0 79.3361Z" fill="#1F2E35"/>
<path d="M1.23445 93.3282L93.328 1.23467C92.2187 1.03785 91.0914 0.858962 89.982 0.71582L0.715576 89.9823C0.858717 91.0917 1.03763 92.2189 1.23445 93.3282Z" fill="#1F2E35"/>
<path d="M4.24073 105.012L105.012 4.24051C104.046 3.90055 103.062 3.59634 102.078 3.31006L3.3103 102.078C3.59659 103.062 3.91866 104.046 4.24073 105.012Z" fill="#1F2E35"/>
<path d="M8.62415 115.336L115.354 8.6063C114.495 8.15898 113.618 7.74747 112.742 7.33594L7.35376 112.724C7.76529 113.618 8.17683 114.477 8.62415 115.336Z" fill="#1F2E35"/>
<path d="M14.1353 124.533L124.551 14.1174C123.781 13.5807 123.012 13.0618 122.225 12.5608L12.5786 122.207C13.0796 123.012 13.5985 123.782 14.1353 124.533Z" fill="#1F2E35"/>
<path d="M20.6482 132.728L132.728 20.6482C132.048 20.0399 131.368 19.4315 130.67 18.8411L18.8411 130.67C19.4315 131.368 20.022 132.048 20.6482 132.728Z" fill="#1F2E35"/>
<path d="M28.1273 139.939L139.939 28.1273C139.348 27.4295 138.74 26.7317 138.131 26.0518L26.0518 138.131C26.7496 138.758 27.4295 139.348 28.1273 139.939Z" fill="#1F2E35"/>
<path d="M36.5902 146.201L146.201 36.5904C145.7 35.8032 145.181 35.0338 144.644 34.2644L34.2642 144.644C35.0335 145.163 35.8029 145.682 36.5902 146.201Z" fill="#1F2E35"/>
<path d="M46.0916 151.39L151.39 46.0916C150.978 45.2148 150.567 44.3381 150.12 43.4792L43.4614 150.137C44.3382 150.567 45.2149 150.996 46.0916 151.39Z" fill="#1F2E35"/>
<path d="M56.7735 155.416L155.434 56.7557C155.147 55.7716 154.825 54.7875 154.503 53.8213L53.8391 154.485C54.7874 154.825 55.7715 155.129 56.7735 155.416Z" fill="#1F2E35"/>
<path d="M68.887 157.992L157.992 68.8867C157.849 67.7595 157.67 66.6323 157.474 65.5229L65.5232 157.473C66.6504 157.688 67.7598 157.849 68.887 157.992Z" fill="#1F2E35"/>
<path d="M79.3359 158.69C80.5705 158.69 81.7872 158.654 82.9861 158.6L158.583 83.0039C158.636 81.7872 158.672 80.5705 158.672 79.3538C158.672 79.2465 158.672 79.1569 158.672 79.0496L79.0317 158.69C79.1391 158.69 79.2465 158.69 79.3359 158.69Z" fill="#1F2E35"/>
<path d="M100.467 155.845L155.845 100.467C156.31 98.7855 156.722 97.0856 157.08 95.3679L95.3679 157.08C97.0856 156.722 98.7854 156.293 100.467 155.845Z" fill="#1F2E35"/>
<path d="M147.99 119.147L119.129 148.008C131.082 141.048 141.048 131.082 147.99 119.147Z" fill="#1F2E35"/>
</svg>
