<svg width="112" height="90" viewBox="0 0 112 90" fill="none" xmlns="http://www.w3.org/2000/svg">
<path d="M66.4296 32.1426C65.181 32.1426 64.2781 33.0455 64.2781 34.2829C64.2781 35.5315 65.181 36.4345 66.4184 36.4345C67.667 36.4345 68.5588 35.5315 68.57 34.2941C68.57 33.0455 67.6781 32.1426 66.4296 32.1426Z" fill="#1F2E35"/>
<path d="M87.9 32.1427C86.6515 32.1205 85.7151 33.0011 85.6928 34.2385C85.6705 35.4871 86.5623 36.4235 87.7886 36.4458C89.0371 36.4681 89.9624 35.5874 89.9847 34.35C90.0181 33.0903 89.1374 32.165 87.9 32.1427Z" fill="#1F2E35"/>
<path d="M109.293 32.1427C108.045 32.1315 107.13 33.0345 107.119 34.2719C107.108 35.5205 108.011 36.4346 109.248 36.4457C110.497 36.4569 111.4 35.565 111.411 34.3165C111.422 33.0568 110.542 32.1538 109.293 32.1427Z" fill="#1F2E35"/>
<path d="M12.8536 47.1588C14.1022 47.1588 15.0051 46.267 15.0051 45.0185C15.0051 43.7699 14.1133 42.8669 12.8648 42.8669C11.6162 42.8669 10.7132 43.7699 10.7132 45.0073C10.7021 46.2447 11.6162 47.1477 12.8536 47.1588Z" fill="#1F2E35"/>
<path d="M34.2462 47.1586C35.4948 47.1698 36.4089 46.2891 36.4312 45.0405C36.4424 43.7808 35.5617 42.8667 34.3243 42.8556C33.0757 42.8444 32.1505 43.7251 32.1393 44.9625C32.117 46.2111 33.02 47.1363 34.2462 47.1586Z" fill="#1F2E35"/>
<path d="M55.6833 42.8556C54.4459 42.8667 53.5429 43.7808 53.5541 45.0294C53.5652 46.2668 54.4905 47.1698 55.7279 47.1586C56.9764 47.1475 57.8571 46.2333 57.8459 44.9848C57.8459 43.7362 56.9318 42.8444 55.6833 42.8556Z" fill="#1F2E35"/>
<path d="M77.2206 42.8557C75.9721 42.8222 75.0245 43.6918 74.9799 44.918C74.9465 46.1666 75.816 47.1141 77.0423 47.1587C78.2908 47.1921 79.2384 46.3226 79.2718 45.0964C79.3164 43.8255 78.458 42.8891 77.2206 42.8557Z" fill="#1F2E35"/>
<path d="M98.6021 42.8556C97.3535 42.8444 96.4282 43.7362 96.4171 44.9625C96.4059 46.2111 97.2978 47.1363 98.5352 47.1475C99.7837 47.1586 100.698 46.2668 100.709 45.0294C100.72 43.7808 99.8395 42.8667 98.6021 42.8556Z" fill="#1F2E35"/>
<path d="M23.5777 57.8716C24.8263 57.8605 25.7181 56.9575 25.7069 55.709C25.7069 54.4604 24.804 53.5686 23.5554 53.5686C22.3069 53.5686 21.415 54.4827 21.415 55.7313C21.4262 56.9687 22.3403 57.8716 23.5777 57.8716Z" fill="#1F2E35"/>
<path d="M42.8521 55.5642C42.7852 56.8239 43.6324 57.7938 44.8475 57.8718C46.0961 57.9387 47.0771 57.0915 47.144 55.8764C47.2109 54.6167 46.3748 53.6468 45.1597 53.5799C43.8888 53.5019 42.919 54.3491 42.8521 55.5642Z" fill="#1F2E35"/>
<path d="M66.5076 53.5688C65.259 53.5354 64.3115 54.3937 64.278 55.6311C64.2446 56.8797 65.1141 57.8273 66.3404 57.8719C67.5889 57.9053 68.5365 57.0358 68.5699 55.8095C68.6034 54.5387 67.745 53.6023 66.5076 53.5688Z" fill="#1F2E35"/>
<path d="M87.8109 53.5687C86.5735 53.5799 85.6817 54.5051 85.704 55.7537C85.7152 56.9911 86.6404 57.8829 87.889 57.8717C89.1264 57.8495 90.0071 56.9353 89.9959 55.6868C89.9736 54.4382 89.0595 53.5576 87.8109 53.5687Z" fill="#1F2E35"/>
<path d="M34.2795 68.5849C35.5281 68.5849 36.4199 67.693 36.431 66.4445C36.431 65.1959 35.5392 64.293 34.2907 64.293C33.0421 64.293 32.1392 65.1959 32.1392 66.4333C32.1392 67.6707 33.0421 68.5849 34.2795 68.5849Z" fill="#1F2E35"/>
<path d="M55.661 64.2817C54.4236 64.304 53.5318 65.2292 53.5541 66.4778C53.5764 67.7152 54.5017 68.607 55.7502 68.5847C56.9876 68.5624 57.8683 67.6483 57.846 66.3886C57.8349 65.14 56.9207 64.2594 55.661 64.2817Z" fill="#1F2E35"/>
<path d="M77.176 64.2818C75.9275 64.2707 75.0022 65.1625 74.9911 66.3888C74.9799 67.6373 75.8717 68.5626 77.1091 68.5737C78.3577 68.5849 79.2718 67.7042 79.283 66.4557C79.2941 65.2071 78.4134 64.293 77.176 64.2818Z" fill="#1F2E35"/>
<path d="M44.9145 79.2977C46.1631 79.3311 47.1106 78.4616 47.1441 77.2354C47.1775 75.9757 46.3192 75.0393 45.0929 75.0058C43.8444 74.9724 42.8968 75.8419 42.8522 77.0681C42.8076 78.3056 43.6883 79.2531 44.9145 79.2977Z" fill="#1F2E35"/>
<path d="M66.4743 74.9948C65.2257 74.9725 64.2893 75.8532 64.267 77.0906C64.2447 78.3391 65.1365 79.2755 66.3628 79.2978C67.6113 79.3201 68.5366 78.4395 68.5589 77.2021C68.5923 75.9424 67.7117 75.0171 66.4743 74.9948Z" fill="#1F2E35"/>
<path d="M55.672 85.7079C54.4346 85.7302 53.5428 86.6443 53.5651 87.8929C53.5874 89.1303 54.5127 90.0221 55.7501 89.9998C56.9875 89.9775 57.8681 89.0634 57.857 87.8149C57.8347 86.5775 56.9206 85.6856 55.672 85.7079Z" fill="#1F2E35"/>
<path d="M34.2908 4.30694C35.5393 4.30694 36.4311 3.40397 36.4311 2.14428C36.4311 0.895727 35.5282 0.00390625 34.2796 0.00390625C33.0311 0.00390625 32.1281 0.918023 32.1393 2.15542C32.1393 3.40397 33.0534 4.30694 34.2908 4.30694Z" fill="#1F2E35"/>
<path d="M57.846 2.30014C57.9128 1.04044 57.0768 0.0705844 55.8617 0.0036978C54.602 -0.0631888 53.6321 0.784042 53.5652 1.99915C53.4983 3.2477 54.3456 4.2287 55.5607 4.29559C56.8092 4.37362 57.7902 3.51524 57.846 2.30014Z" fill="#1F2E35"/>
<path d="M77.176 0.00352132C75.9275 -0.00762644 75.0022 0.884196 74.9911 2.11045C74.9799 3.359 75.8717 4.28426 77.1091 4.29541C78.3577 4.30656 79.2718 3.42589 79.283 2.17734C79.2941 0.928787 78.4134 0.0258168 77.176 0.00352132Z" fill="#1F2E35"/>
<path d="M23.6112 15.0198C24.8486 14.9975 25.7292 14.0834 25.7181 12.8349C25.7069 11.5975 24.7928 10.7057 23.5331 10.7279C22.2957 10.7502 21.4039 11.6644 21.4262 12.9129C21.4373 14.1392 22.3626 15.031 23.6112 15.0198Z" fill="#1F2E35"/>
<path d="M45.0371 10.7167C43.7886 10.7055 42.8745 11.5862 42.8522 12.8236C42.841 14.0721 43.7217 14.9974 44.9591 15.0085C46.2076 15.0197 47.1217 14.139 47.144 12.8905C47.1552 11.6531 46.2745 10.739 45.0371 10.7167Z" fill="#1F2E35"/>
<path d="M66.4406 10.7167C65.192 10.7055 64.2779 11.5973 64.2779 12.8459C64.2668 14.0944 65.1698 15.0085 66.4072 15.0197C67.6557 15.0308 68.5587 14.1279 68.5698 12.8905C68.5698 11.6308 67.6891 10.7278 66.4406 10.7167Z" fill="#1F2E35"/>
<path d="M87.8445 10.7166C86.5959 10.7166 85.7041 11.6195 85.7041 12.8681C85.7041 14.1166 86.6182 15.0196 87.8556 15.0084C89.1042 15.0084 89.996 14.1055 89.996 12.8458C89.9848 11.6084 89.093 10.7166 87.8445 10.7166Z" fill="#1F2E35"/>
<path d="M12.8311 25.7326C14.0797 25.7437 14.9826 24.8519 14.9938 23.6034C15.0049 22.3548 14.1131 21.4407 12.8757 21.4295C11.6272 21.4184 10.7131 22.3214 10.7019 23.5588C10.7019 24.7962 11.6049 25.7214 12.8311 25.7326Z" fill="#1F2E35"/>
<path d="M34.2572 25.7326C35.5057 25.7437 36.4087 24.8519 36.4198 23.6034C36.431 22.3548 35.5391 21.4407 34.3017 21.4295C33.0532 21.4184 32.1391 22.3214 32.1279 23.5588C32.1279 24.7962 33.0309 25.7214 34.2572 25.7326Z" fill="#1F2E35"/>
<path d="M55.7946 21.4296C54.5461 21.3962 53.5985 22.2657 53.5539 23.492C53.5205 24.7405 54.39 25.6881 55.6162 25.7327C56.8648 25.7773 57.8124 24.8966 57.8458 23.6703C57.8904 22.3995 57.032 21.4742 55.7946 21.4296Z" fill="#1F2E35"/>
<path d="M77.1425 21.4297C75.8939 21.4297 74.991 22.3327 74.991 23.5701C74.991 24.8186 75.8939 25.7216 77.1313 25.7327C78.3799 25.7327 79.2829 24.8409 79.2829 23.5924C79.2829 22.3327 78.391 21.4297 77.1425 21.4297Z" fill="#1F2E35"/>
<path d="M98.5797 21.4295C97.3311 21.4184 96.417 22.3214 96.4059 23.5588C96.3947 24.8073 97.2977 25.7214 98.5351 25.7326C99.7836 25.7437 100.687 24.8408 100.698 23.6034C100.709 22.3437 99.8282 21.4407 98.5797 21.4295Z" fill="#1F2E35"/>
<path d="M2.12932 36.4458C3.37787 36.4569 4.28084 35.554 4.29199 34.3166C4.30314 33.068 3.41132 32.1539 2.17391 32.1539C0.925365 32.1428 0.0112499 33.0457 0.000102093 34.2831C-0.0110457 35.5094 0.891923 36.4347 2.12932 36.4458Z" fill="#1F2E35"/>
<path d="M23.4885 36.4458C24.7371 36.4904 25.6846 35.6097 25.7181 34.3835C25.7515 33.1238 24.8931 32.1874 23.6669 32.1428C22.4183 32.1093 21.4708 32.9789 21.4262 34.2051C21.3816 35.4537 22.2623 36.4012 23.4885 36.4458Z" fill="#1F2E35"/>
<path d="M45.0259 32.1427C43.7773 32.1315 42.8521 33.0234 42.8409 34.2608C42.8298 35.5093 43.7216 36.4346 44.959 36.4457C46.2076 36.4569 47.1217 35.565 47.1328 34.3276C47.1551 33.0679 46.2744 32.1538 45.0259 32.1427Z" fill="#1F2E35"/>
</svg>
