<svg width="710" height="729" viewBox="0 0 710 729" fill="none" xmlns="http://www.w3.org/2000/svg">
<path class="mmm" d="M294.106 729C183.016 729 78.5688 685.733 0 607.202L3.76171 603.441C163.861 763.517 424.325 763.517 584.424 603.441C661.979 525.897 704.691 422.798 704.691 313.164C704.691 203.53 661.979 100.404 584.424 22.887L588.185 19.1259C666.754 97.6836 710 202.116 710 313.191C710 424.265 666.727 528.698 588.185 607.255C509.643 685.76 405.196 729 294.106 729Z" fill="#1A3B34"/>
<path class="mmm" d="M294.106 700.218C194.914 700.218 95.7497 662.473 20.249 586.982L24.0107 583.221C172.931 732.121 415.254 732.121 564.201 583.221C713.121 434.322 713.121 192.006 564.201 43.1066L567.963 39.3455C718.964 190.326 718.964 436.002 567.963 587.009C492.462 662.473 393.271 700.218 294.106 700.218Z" fill="#1A3B34"/>
<path class="mmm" d="M294.106 671.782C198.302 671.782 108.235 634.464 40.4712 566.736L44.2329 562.975C110.983 629.716 199.716 666.447 294.079 666.447C388.468 666.447 477.201 629.689 543.925 562.975C610.675 496.234 647.411 407.513 647.411 313.164C647.411 218.788 610.648 130.067 543.925 63.3529L547.687 59.5917C615.424 127.319 652.747 217.401 652.747 313.19C652.747 408.98 615.424 499.035 547.687 566.789C479.976 634.464 389.909 671.782 294.106 671.782Z" fill="#1A3B34"/>
<path class="mmm" d="M294.105 643C209.587 643 125.069 610.83 60.7202 546.49L64.4819 542.729C191.099 669.328 397.112 669.328 523.729 542.729C650.346 416.129 650.346 210.145 523.729 83.5458L527.491 79.7847C656.189 208.465 656.189 417.837 527.491 546.49C463.142 610.83 378.624 643 294.105 643Z" fill="#1A3B34"/>
<path class="mmm" d="M294.106 614.404C216.924 614.404 139.716 585.035 80.9429 526.27L84.7046 522.509C200.17 637.958 388.015 637.958 503.453 522.509C618.919 407.06 618.919 219.241 503.453 103.819L507.215 100.058C624.735 217.561 624.735 408.794 507.215 526.297C448.495 585.035 371.287 614.404 294.106 614.404Z" fill="#1A3B34"/>
<path class="mmm" d="M294.105 585.809C224.234 585.809 154.362 559.214 101.191 506.051L104.953 502.29C209.24 606.562 378.943 606.562 483.23 502.29C533.76 451.767 561.586 384.6 561.586 313.164C561.586 241.728 533.76 174.561 483.23 124.039L486.992 120.277C538.535 171.787 566.895 240.315 566.895 313.164C566.895 386.013 538.509 454.541 486.992 506.051C433.821 559.214 363.977 585.809 294.105 585.809Z" fill="#1A3B34"/>
<path class="mmm" d="M294.105 557.213C231.57 557.213 169.036 533.419 121.414 485.804L125.176 482.043C218.311 575.165 369.846 575.165 462.981 482.043C556.117 388.921 556.117 237.407 462.981 144.285L466.743 140.524C561.959 235.727 561.959 390.628 466.743 485.831C419.175 533.392 356.64 557.213 294.105 557.213Z" fill="#1A3B34"/>
<path class="mmm" d="M460.048 0L444.654 15.3648V0H460.048Z" fill="#1A3B34"/>
<path class="mmm" d="M488.54 0L444.654 43.8803V28.5155L473.173 0H488.54Z" fill="#1A3B34"/>
<path class="mmm" d="M573.859 0L444.654 129.16V114.035L558.705 0H573.859Z" fill="#1A3B34"/>
<path class="mmm" d="M545.579 0L444.654 100.885V85.5199L530.212 0H545.579Z" fill="#1A3B34"/>
<path class="mmm" d="M517.06 0L444.654 72.3958V57.0044L501.693 0H517.06Z" fill="#1A3B34"/>
</svg>
